<svg xmlns="http://www.w3.org/2000/svg" version="1.1" width="3300" height="2000"><g id="Notes"><style>
    text {
      font-family: monospace;
      text-anchor: middle;
    }
    text.emphasis {
      font-weight:bold;
    }
    text.lanchor {
      text-anchor: start;
    }
  </style><rect height="2200" id="artboard" fill="white" width="3300" x="0" y="0"/><line id="" style="fill:none;stroke:black;stroke-width:0.5;" x1="263" x2="3036" y1="292" y2="292"/><text class="lanchor emphasis" transform="matrix(1 0 0 1 263 322)">Weight/Scale Variations</text><text transform="matrix(1 0 0 1 559.711 322)">Ultralight</text><text transform="matrix(1 0 0 1 856.422 322)">Thin</text><text transform="matrix(1 0 0 1 1153.13 322)">Light</text><text transform="matrix(1 0 0 1 1449.84 322)">Regular</text><text transform="matrix(1 0 0 1 1746.56 322)">Medium</text><text transform="matrix(1 0 0 1 2043.27 322)">Semibold</text><text transform="matrix(1 0 0 1 2339.98 322)">Bold</text><text transform="matrix(1 0 0 1 2636.69 322)">Heavy</text><text transform="matrix(1 0 0 1 2933.4 322)">Black</text><text id="template-version" style="text-anchor: end;" transform="matrix(1 0 0 1 3036 1933)">Template v.1.0</text><text class="lanchor" transform="matrix(1 0 0 1 263 726)">Small</text><text class="lanchor" transform="matrix(1 0 0 1 263 1156)">Medium</text><text class="lanchor" transform="matrix(1 0 0 1 263 1586)">Large</text></g><g id="Guides"><g id="H-reference" style="fill:#27AAE1;stroke:none;" transform="matrix(1 0 0 1 339 696)"><path d="M 54.9316 0 L 57.666 0 L 30.5664 -70.459 L 28.0762 -70.459 L 0.976562 0 L 3.66211 0 L 12.9395 -24.4629 L 45.7031 -24.4629 Z M 29.1992 -67.0898 L 29.4434 -67.0898 L 44.8242 -26.709 L 13.8184 -26.709 Z"/></g><line id="Baseline-S" style="fill:none;stroke:#27AAE1;opacity:1;stroke-width:0.577;" x1="263" x2="3036" y1="696" y2="696"/><line id="Capline-S" style="fill:none;stroke:#27AAE1;opacity:1;stroke-width:0.577;" x1="263" x2="3036" y1="625.541" y2="625.541"/><g id="H-reference" style="fill:#27AAE1;stroke:none;" transform="matrix(1 0 0 1 339 1126)"><path d="M 54.9316 0 L 57.666 0 L 30.5664 -70.459 L 28.0762 -70.459 L 0.976562 0 L 3.66211 0 L 12.9395 -24.4629 L 45.7031 -24.4629 Z M 29.1992 -67.0898 L 29.4434 -67.0898 L 44.8242 -26.709 L 13.8184 -26.709 Z"/></g><line id="Baseline-M" style="fill:none;stroke:#27AAE1;opacity:1;stroke-width:0.577;" x1="263" x2="3036" y1="1126" y2="1126"/><line id="Capline-M" style="fill:none;stroke:#27AAE1;opacity:1;stroke-width:0.577;" x1="263" x2="3036" y1="1055.54" y2="1055.54"/><g id="H-reference" style="fill:#27AAE1;stroke:none;" transform="matrix(1 0 0 1 339 1556)"><path d="M 54.9316 0 L 57.666 0 L 30.5664 -70.459 L 28.0762 -70.459 L 0.976562 0 L 3.66211 0 L 12.9395 -24.4629 L 45.7031 -24.4629 Z M 29.1992 -67.0898 L 29.4434 -67.0898 L 44.8242 -26.709 L 13.8184 -26.709 Z"/></g><line id="Baseline-L" style="fill:none;stroke:#27AAE1;opacity:1;stroke-width:0.577;" x1="263" x2="3036" y1="1556" y2="1556"/><line id="Capline-L" style="fill:none;stroke:#27AAE1;opacity:1;stroke-width:0.577;" x1="263" x2="3036" y1="1485.54" y2="1485.54"/><rect height="119.336" id="left-margin" style="fill:darkred;stroke:none;opacity:0.4;" width="12.4512" x="1394.06" y="1030.79"/><rect height="119.336" id="right-margin" style="fill:darkgreen;stroke:none;opacity:0.4;" width="12.4512" x="1502.5112" y="1030.79"/><rect x="1406.5112" y="1045" width="96" height="96" fill="none" stroke="blue" stroke-dasharray="5"/><rect x="1394.06" y="1030.79" width="120.9024" height="119.336" fill="none" stroke="blue"/></g><g id="Symbols"><g id="Bold-L" transform="matrix(1 0 0 1 2266 1556)"><path d="M114.97125 19.111250000000013 Q114.97125 0.055531250000029786 107.715 -16.700439999999972 Q100.45875000000001 -33.45624999999998 88.0425 -45.87249999999999 Q75.62625 -58.28874999999998 58.87027875 -65.54499999999999 Q42.11446875 -72.80124999999998 23.05875 -72.80124999999998 V-87.95874999999998 Q45.31125 -87.95874999999998 64.76977125 -79.54149999999998 Q84.22829250000001 -71.12441124999998 98.7594975 -56.62335999999999 Q113.29086375 -42.12246999999999 121.70972625 -22.612832499999982 Q130.12875 -3.1031949999999853 130.12875 19.111250000000013 H114.97125 Z"/></g><g id="Semibold-L" transform="matrix(1 0 0 1 1970.27 1556)"><path d="M116.16304875 17.919451250000037 Q116.16304875 -1.1362674999999882 108.90679875 -17.89207749999997 Q101.65054875 -34.64804874999997 89.23429875 -47.06429874999999 Q76.81804875 -59.48054874999998 60.0620775 -66.73679874999999 Q43.3062675 -73.99304874999999 24.25054875 -73.99304874999999 V-86.76695124999998 Q46.012365 -86.76695124999998 65.03357625000001 -78.53159124999998 Q84.05494875 -70.29639249999998 98.25962249999999 -56.10881124999999 Q112.46429625 -41.92106874999999 120.70062374999999 -22.870993749999982 Q128.93695125000002 -3.820757499999985 128.93695125000002 17.919451250000037 H116.16304875 Z"/></g><g id="Medium-L" transform="matrix(1 0 0 1 1674.31 1556)"><path d="M117.05701875 17.02548125000004 Q117.05701875 -2.030237499999984 109.80076874999999 -18.786047499999995 Q102.54451875 -35.54201874999997 90.12826874999999 -47.95826874999999 Q77.71201875 -60.37451874999998 60.9560475 -67.63076874999999 Q44.2002375 -74.88701874999998 25.14451875 -74.88701874999998 V-85.87298124999998 Q46.53820125 -85.87298124999998 65.23143 -77.77419999999998 Q83.92482000000001 -69.67525749999999 97.88455499999999 -55.722617499999984 Q111.84445125 -41.77013874999997 119.94371625000001 -23.064654999999988 Q128.04298125000003 -4.359009999999984 128.04298125000003 17.02548125000004 H117.05701875 Z"/></g><g id="Regular-L" transform="matrix(1 0 0 1 1378.56 1556)"><path d="M117.7125 16.370000000000033 Q117.7125 -2.685718749999978 110.45625 -19.44168999999998 Q103.2 -36.19749999999998 90.78375 -48.61374999999998 Q78.3675 -61.02999999999999 61.61152875 -68.28624999999998 Q44.85571875 -75.54249999999999 25.8 -75.54249999999999 V-85.21749999999999 Q46.92375 -85.21749999999999 65.376555 -77.21869374999997 Q83.82936 -69.21972624999998 97.60962375000001 -55.43962374999998 Q111.38972625 -41.65935999999998 119.38869375 -23.206554999999994 Q127.3875 -4.753749999999982 127.3875 16.370000000000033 H117.7125 Z"/></g><g id="Light-L" transform="matrix(1 0 0 1 1082.77 1556)"><path d="M117.27825375 16.370000000000033 Q117.27825375 -2.595741249999975 110.05618875 -19.27253874999998 Q102.83412375 -35.94933624999999 90.47673 -48.30672999999999 Q78.11933625 -60.66412374999999 61.44253875 -67.88618874999997 Q44.765741250000005 -75.10825374999999 25.8 -75.10825374999999 V-82.42642374999997 Q46.3035825 -82.42642374999997 64.26006 -74.64465999999999 Q82.21669875 -66.86289624999998 95.62479750000001 -53.454797499999984 Q109.03289625000001 -40.046698749999976 116.81466 -22.09005999999998 Q124.59642375000001 -4.133582499999974 124.59642375000001 16.370000000000033 H117.27825375 Z"/></g><g id="Thin-L" transform="matrix(1 0 0 1 787.282 1556)"><path d="M116.84416875000001 16.370000000000033 Q116.84416875000001 -2.5059249999999764 109.65612750000001 -19.103548749999973 Q102.4682475 -35.70133374999999 90.16971000000001 -47.99970999999998 Q77.87133375 -60.29824749999999 61.273548749999996 -67.48612749999998 Q44.675925 -74.67416874999998 25.8 -74.67416874999998 V-79.63583124999998 Q45.683415 -79.63583124999998 63.1438875 -72.07110999999998 Q80.60436 -64.50638874999999 93.64029375000001 -51.47029374999998 Q106.67638875 -38.43435999999997 114.24111 -20.97388749999999 Q121.80583125 -3.5134149999999806 121.80583125 16.370000000000033 H116.84416875000001 Z"/></g><g id="Ultralight-L" transform="matrix(1 0 0 1 491.205 1556)"><path d="M116.58375000000001 16.370000000000033 Q116.58375000000001 -2.451906249999979 109.41618749999999 -19.00212249999997 Q102.248625 -35.55249999999998 89.9855625 -47.815562499999984 Q77.7225 -60.07862499999999 61.17212250000001 -67.24618749999999 Q44.62190625 -74.41375 25.8 -74.41375 V-77.96124999999998 Q45.31125 -77.96124999999998 62.474055 -70.52681874999999 Q79.63686 -63.09222624999998 92.44962375 -50.279623749999985 Q105.26222625 -37.46685999999998 112.69681875 -20.30405499999999 Q120.13125000000001 -3.141249999999985 120.13125000000001 16.370000000000033 H116.58375000000001 Z"/></g><g id="Bold-M" transform="matrix(1 0 0 1 2281.8 1126)"><path d="M87.125 7.64500000000001 Q87.125 -6.85499999999999 81.625 -19.60499999999999 Q76.125 -32.35499999999999 66.625 -41.85499999999999 Q57.125 -51.35499999999999 44.375 -56.85499999999999 Q31.625 -62.35499999999999 17.125 -62.35499999999999 V-78.10499999999999 Q34.875 -78.10499999999999 50.475125 -71.35637499999999 Q66.07525 -64.60774999999998 77.725125 -52.98137499999999 Q89.375 -41.35499999999999 96.125 -25.715249999999983 Q102.875 -10.075499999999991 102.875 7.64500000000001 H87.125 Z"/></g><g id="Semibold-M" transform="matrix(1 0 0 1 1985.97 1126)"><path d="M88.374875 6.395125000000007 Q88.374875 -8.104874999999993 82.874875 -20.854874999999993 Q77.374875 -33.60487499999999 67.874875 -43.10487499999999 Q58.374875 -52.60487499999999 45.624875 -58.10487499999999 Q32.874875 -63.60487499999999 18.374875 -63.60487499999999 V-76.85512499999999 Q35.5815 -76.85512499999999 50.7305 -70.29599999999999 Q65.8795 -63.73699999999999 77.1925 -52.43737499999999 Q88.5055 -41.137624999999986 95.06525 -25.966249999999988 Q101.625125 -10.79487499999999 101.625125 6.395125000000007 H88.374875 Z"/></g><g id="Medium-M" transform="matrix(1 0 0 1 1689.91 1126)"><path d="M89.3125 5.45750000000001 Q89.3125 -9.04249999999999 83.8125 -21.79249999999999 Q78.3125 -34.54249999999999 68.8125 -44.04249999999999 Q59.3125 -53.54249999999999 46.5625 -59.04249999999999 Q33.8125 -64.54249999999999 19.3125 -64.54249999999999 V-75.91749999999999 Q36.111375 -75.91749999999999 50.922 -69.50074999999998 Q65.732625 -63.08387499999999 76.793 -52.02924999999999 Q87.85325 -40.97462499999999 94.270375 -26.154499999999985 Q100.6875 -11.334374999999994 100.6875 5.45750000000001 H89.3125 Z"/></g><g id="Regular-M" transform="matrix(1 0 0 1 1394.06 1126)"><path d="M90.0 4.77000000000001 Q90.0 -9.72999999999999 84.5 -22.47999999999999 Q79.0 -35.22999999999999 69.5 -44.72999999999999 Q60.0 -54.22999999999999 47.25 -59.72999999999999 Q34.5 -65.22999999999999 20.0 -65.22999999999999 V-75.22999999999999 Q36.5 -75.22999999999999 51.0625 -68.91749999999999 Q65.625 -62.60499999999999 76.5 -51.72999999999999 Q87.375 -40.85499999999999 93.6875 -26.29249999999999 Q100.0 -11.72999999999999 100.0 4.77000000000001 H90.0 Z"/></g><g id="Light-M" transform="matrix(1 0 0 1 1098.18 1126)"><path d="M90.0 4.77000000000001 Q90.0 -9.72999999999999 84.5 -22.47999999999999 Q79.0 -35.22999999999999 69.5 -44.72999999999999 Q60.0 -54.22999999999999 47.25 -59.72999999999999 Q34.5 -65.22999999999999 20.0 -65.22999999999999 V-72.72987499999999 Q36.01925 -72.72987499999999 50.124875 -66.633625 Q64.230625 -60.53749999999999 74.769125 -49.99912499999999 Q85.3075 -39.46062499999999 91.403625 -25.354874999999993 Q97.499875 -11.24924999999999 97.499875 4.77000000000001 H90.0 Z"/></g><g id="Thin-M" transform="matrix(1 0 0 1 802.565 1126)"><path d="M90.0 4.77000000000001 Q90.0 -9.72999999999999 84.5 -22.47999999999999 Q79.0 -35.22999999999999 69.5 -44.72999999999999 Q60.0 -54.22999999999999 47.25 -59.72999999999999 Q34.5 -65.22999999999999 20.0 -65.22999999999999 V-70.22999999999999 Q35.5385 -70.22999999999999 49.1875 -64.35024999999999 Q62.8365 -58.47037499999999 73.0385 -48.26849999999999 Q83.240375 -38.06649999999999 89.12025 -24.41749999999999 Q95.0 -10.768499999999989 95.0 4.77000000000001 H90.0 Z"/></g><g id="Ultralight-M" transform="matrix(1 0 0 1 506.415 1126)"><path d="M90.0 4.77000000000001 Q90.0 -9.72999999999999 84.5 -22.47999999999999 Q79.0 -35.22999999999999 69.5 -44.72999999999999 Q60.0 -54.22999999999999 47.25 -59.72999999999999 Q34.5 -65.22999999999999 20.0 -65.22999999999999 V-68.72999999999999 Q35.25 -68.72999999999999 48.625 -62.97999999999999 Q62.0 -57.22999999999999 72.0 -47.22999999999999 Q82.0 -37.22999999999999 87.75 -23.85499999999999 Q93.5 -10.47999999999999 93.5 4.77000000000001 H90.0 Z"/></g><g id="Bold-S" transform="matrix(1 0 0 1 2294.23 696)"><path d="M66.37462500000001 -4.557624999999987 Q66.37462500000001 -14.854074999999995 62.469075000000004 -23.907849999999996 Q58.563525 -32.96162499999999 51.817575 -39.70757499999999 Q45.071625000000004 -46.453525 36.01785 -50.35907499999999 Q26.964074999999998 -54.264624999999995 16.667625 -54.264624999999995 V-65.90237499999999 Q29.39025 -65.90237499999999 40.545230625 -61.077738624999995 Q51.70021125 -56.25310224999999 60.030571875 -47.94128312499999 Q68.3609325 -39.62946399999999 73.18665375 -28.44321925 Q78.012375 -17.2569745 78.012375 -4.557624999999987 H66.37462500000001 Z"/></g><g id="Semibold-S" transform="matrix(1 0 0 1 1998.1 696)"><path d="M67.360776375 -5.543776374999993 Q67.360776375 -15.840226375 63.455226375 -24.894001374999988 Q59.549676375 -33.947776375 52.803726375000004 -40.693726375 Q46.057776375 -47.43967637499999 37.004001375 -51.345226374999996 Q27.950226375 -55.250776375 17.653776375 -55.250776375 V-64.91622362499999 Q29.9476785 -64.91622362499999 40.74672150000001 -60.241102749999996 Q51.545764500000004 -55.5660805 59.61033075 -47.512067124999994 Q67.674897 -39.457955125 72.350511 -28.641258249999993 Q77.026223625 -17.824561374999988 77.026223625 -5.543776374999993 H67.360776375 Z"/></g><g id="Medium-S" transform="matrix(1 0 0 1 1701.85 696)"><path d="M68.10056250000001 -6.283562499999988 Q68.10056250000001 -16.580012499999995 64.1950125 -25.633787499999997 Q60.2894625 -34.68756249999999 53.5435125 -41.43351249999999 Q46.797562500000005 -48.17946249999999 37.7437875 -52.08501249999999 Q28.690012499999998 -55.990562499999996 18.3935625 -55.990562499999996 V-64.17643749999999 Q30.365749875000002 -64.17643749999999 40.897815 -59.61365049999999 Q51.429978750000004 -55.050764875 59.29512525 -47.19005649999999 Q67.16027175 -39.329348125 71.723354625 -28.789787499999996 Q76.2864375 -18.250226874999996 76.2864375 -6.283562499999988 H68.10056250000001 Z"/></g><g id="Regular-S" transform="matrix(1 0 0 1 1405.73 696)"><path d="M68.643 -6.825999999999993 Q68.643 -17.122449999999986 64.73745 -26.176225000000002 Q60.8319 -35.23 54.08595 -41.97594999999999 Q47.34 -48.7219 38.286225 -52.627449999999996 Q29.23245 -56.532999999999994 18.936 -56.532999999999994 V-63.634 Q30.672375000000002 -63.634 41.008669499999996 -59.153466249999994 Q51.344964 -54.672932499999995 59.06394825 -46.953948249999996 Q66.7829325 -39.23496399999999 71.26346625000001 -28.89866949999999 Q75.744 -18.56237499999999 75.744 -6.825999999999993 H68.643 Z"/></g><g id="Light-S" transform="matrix(1 0 0 1 1109.75 696)"><path d="M68.643 -6.825999999999993 Q68.643 -17.122449999999986 64.73745 -26.176225000000002 Q60.8319 -35.23 54.08595 -41.97594999999999 Q47.34 -48.7219 38.286225 -52.627449999999996 Q29.23245 -56.532999999999994 18.936 -56.532999999999994 V-61.661401375 Q30.29306325 -61.661401375 40.268982 -57.351488874999994 Q50.244900750000006 -53.041675 57.698287875000005 -45.58828787499999 Q65.15167500000001 -38.13490074999999 69.461488875 -28.158981999999995 Q73.77140137500001 -18.18306324999999 73.77140137500001 -6.825999999999993 H68.643 Z"/></g><g id="Thin-S" transform="matrix(1 0 0 1 814.015 696)"><path d="M68.643 -6.825999999999993 Q68.643 -17.122449999999986 64.73745 -26.176225000000002 Q60.8319 -35.23 54.08595 -41.97594999999999 Q47.34 -48.7219 38.286225 -52.627449999999996 Q29.23245 -56.532999999999994 18.936 -56.532999999999994 V-59.68899999999999 Q29.9137515 -59.68899999999999 39.5292945 -55.54990599999999 Q49.144936125 -51.41071337499999 56.33282475000001 -44.222824749999994 Q63.520713375 -37.034936125 67.659906 -27.419294499999992 Q71.799 -17.80375149999999 71.799 -6.825999999999993 H68.643 Z"/></g><g id="Ultralight-S" transform="matrix(1 0 0 1 517.792 696)"><path d="M68.643 -6.825999999999993 Q68.643 -17.122449999999986 64.73745 -26.176225000000002 Q60.8319 -35.23 54.08595 -41.97594999999999 Q47.34 -48.7219 38.286225 -52.627449999999996 Q29.23245 -56.532999999999994 18.936 -56.532999999999994 V-58.5055 Q29.686125 -58.5055 39.085482 -54.46877874999999 Q48.484839 -50.43205749999999 55.51344825 -43.40344825 Q62.5420575 -36.37483899999999 66.57877875000001 -26.975481999999985 Q70.6155 -17.57612499999999 70.6155 -6.825999999999993 H68.643 Z"/></g></g></svg>