<svg xmlns="http://www.w3.org/2000/svg" version="1.1" width="3300" height="2000"><g id="Notes"><style>
    text {
      font-family: monospace;
      text-anchor: middle;
    }
    text.emphasis {
      font-weight:bold;
    }
    text.lanchor {
      text-anchor: start;
    }
  </style><rect height="2200" id="artboard" fill="white" width="3300" x="0" y="0"/><line id="" style="fill:none;stroke:black;stroke-width:0.5;" x1="263" x2="3036" y1="292" y2="292"/><text class="lanchor emphasis" transform="matrix(1 0 0 1 263 322)">Weight/Scale Variations</text><text transform="matrix(1 0 0 1 559.711 322)">Ultralight</text><text transform="matrix(1 0 0 1 856.422 322)">Thin</text><text transform="matrix(1 0 0 1 1153.13 322)">Light</text><text transform="matrix(1 0 0 1 1449.84 322)">Regular</text><text transform="matrix(1 0 0 1 1746.56 322)">Medium</text><text transform="matrix(1 0 0 1 2043.27 322)">Semibold</text><text transform="matrix(1 0 0 1 2339.98 322)">Bold</text><text transform="matrix(1 0 0 1 2636.69 322)">Heavy</text><text transform="matrix(1 0 0 1 2933.4 322)">Black</text><text id="template-version" style="text-anchor: end;" transform="matrix(1 0 0 1 3036 1933)">Template v.1.0</text><text class="lanchor" transform="matrix(1 0 0 1 263 726)">Small</text><text class="lanchor" transform="matrix(1 0 0 1 263 1156)">Medium</text><text class="lanchor" transform="matrix(1 0 0 1 263 1586)">Large</text></g><g id="Guides"><g id="H-reference" style="fill:#27AAE1;stroke:none;" transform="matrix(1 0 0 1 339 696)"><path d="M 54.9316 0 L 57.666 0 L 30.5664 -70.459 L 28.0762 -70.459 L 0.976562 0 L 3.66211 0 L 12.9395 -24.4629 L 45.7031 -24.4629 Z M 29.1992 -67.0898 L 29.4434 -67.0898 L 44.8242 -26.709 L 13.8184 -26.709 Z"/></g><line id="Baseline-S" style="fill:none;stroke:#27AAE1;opacity:1;stroke-width:0.577;" x1="263" x2="3036" y1="696" y2="696"/><line id="Capline-S" style="fill:none;stroke:#27AAE1;opacity:1;stroke-width:0.577;" x1="263" x2="3036" y1="625.541" y2="625.541"/><g id="H-reference" style="fill:#27AAE1;stroke:none;" transform="matrix(1 0 0 1 339 1126)"><path d="M 54.9316 0 L 57.666 0 L 30.5664 -70.459 L 28.0762 -70.459 L 0.976562 0 L 3.66211 0 L 12.9395 -24.4629 L 45.7031 -24.4629 Z M 29.1992 -67.0898 L 29.4434 -67.0898 L 44.8242 -26.709 L 13.8184 -26.709 Z"/></g><line id="Baseline-M" style="fill:none;stroke:#27AAE1;opacity:1;stroke-width:0.577;" x1="263" x2="3036" y1="1126" y2="1126"/><line id="Capline-M" style="fill:none;stroke:#27AAE1;opacity:1;stroke-width:0.577;" x1="263" x2="3036" y1="1055.54" y2="1055.54"/><g id="H-reference" style="fill:#27AAE1;stroke:none;" transform="matrix(1 0 0 1 339 1556)"><path d="M 54.9316 0 L 57.666 0 L 30.5664 -70.459 L 28.0762 -70.459 L 0.976562 0 L 3.66211 0 L 12.9395 -24.4629 L 45.7031 -24.4629 Z M 29.1992 -67.0898 L 29.4434 -67.0898 L 44.8242 -26.709 L 13.8184 -26.709 Z"/></g><line id="Baseline-L" style="fill:none;stroke:#27AAE1;opacity:1;stroke-width:0.577;" x1="263" x2="3036" y1="1556" y2="1556"/><line id="Capline-L" style="fill:none;stroke:#27AAE1;opacity:1;stroke-width:0.577;" x1="263" x2="3036" y1="1485.54" y2="1485.54"/><rect height="119.336" id="left-margin" style="fill:darkred;stroke:none;opacity:0.4;" width="12.4512" x="1394.06" y="1030.79"/><rect height="119.336" id="right-margin" style="fill:darkgreen;stroke:none;opacity:0.4;" width="12.4512" x="1502.5112" y="1030.79"/><rect x="1406.5112" y="1045" width="96" height="96" fill="none" stroke="blue" stroke-dasharray="5"/><rect x="1394.06" y="1030.79" width="120.9024" height="119.336" fill="none" stroke="blue"/></g><g id="Symbols"><g id="Bold-L" transform="matrix(1 0 0 1 2266 1556)"><path d="M32.25 9.920000000000016 Q29.9925 7.662500000000023 29.9925 4.598750000000024 Q29.9925 1.535000000000025 32.25 -0.7224999999999824 L111.74625 -80.37999999999998 Q114.00375 -82.47625 117.14812500000001 -82.55687499999999 Q120.2925 -82.63749999999999 122.55 -80.37999999999998 Q124.8075 -78.12249999999997 124.8075 -75.05874999999997 Q124.8075 -71.99499999999998 122.55 -69.73749999999998 L42.8925 9.920000000000016 Q40.635 12.177500000000009 37.57125 12.177500000000009 Q34.5075 12.177500000000009 32.25 9.920000000000016 Z"/></g><g id="Semibold-L" transform="matrix(1 0 0 1 1970.27 1556)"><path d="M33.09124125 9.07875875000002 Q31.18429875 7.171816250000006 31.18429875 4.598750000000024 Q31.18429875 2.025683750000013 33.09124125 0.11874125000002778 L112.65763500000001 -79.53875874999999 Q114.49443375 -81.28445124999999 117.14812500000001 -81.36507624999999 Q119.80181625 -81.44570124999998 121.70875875 -79.53875874999999 Q123.61570125000001 -77.63181624999999 123.61570125000001 -75.05874999999997 Q123.61570125000001 -72.48568374999999 121.70875875 -70.57874124999998 L42.05125875 9.07875875000002 Q40.14431625 10.985701250000034 37.57125 10.985701250000034 Q34.99818375 10.985701250000034 33.09124125 9.07875875000002 Z"/></g><g id="Medium-L" transform="matrix(1 0 0 1 1674.31 1556)"><path d="M33.7222125 8.447787500000032 Q32.07826875 6.803682500000008 32.07826875 4.598750000000024 Q32.07826875 2.3938175000000115 33.7222125 0.7497125000000153 L113.34117375 -78.90778749999998 Q114.86256750000001 -80.39048125 117.14812500000001 -80.47110624999999 Q119.4336825 -80.55173124999999 121.0777875 -78.90778749999998 Q122.72173125000002 -77.26368249999999 122.72173125000002 -75.05874999999997 Q122.72173125000002 -72.85381749999999 121.0777875 -71.20971249999998 L41.4202875 8.447787500000032 Q39.776182500000004 10.091731250000038 37.57125 10.091731250000038 Q35.3663175 10.091731250000038 33.7222125 8.447787500000032 Z"/></g><g id="Regular-L" transform="matrix(1 0 0 1 1378.56 1556)"><path d="M34.185 7.985000000000014 Q32.73375 6.533750000000026 32.73375 4.598750000000024 Q32.73375 2.6637500000000216 34.185 1.2125000000000057 L113.8425 -78.445 Q115.13250000000001 -79.73499999999999 117.14812500000001 -79.81562499999998 Q119.16375000000001 -79.89624999999998 120.61500000000001 -78.445 Q122.06625 -76.99374999999998 122.06625 -75.05874999999997 Q122.06625 -73.12374999999999 120.61500000000001 -71.67249999999999 L40.9575 7.985000000000014 Q39.50625 9.43625000000003 37.57125 9.43625000000003 Q35.636250000000004 9.43625000000003 34.185 7.985000000000014 Z"/></g><g id="Light-L" transform="matrix(1 0 0 1 1082.77 1556)"><path d="M34.86724875 7.3027512500000284 Q33.60208125 6.03758375000001 33.60208125 4.2762500000000045 Q33.60208125 2.5149162500000273 34.86724875 1.2745812500000113 L113.96650125000001 -77.76275124999998 Q115.13250000000001 -78.92874999999998 116.86900125000001 -79.00937499999998 Q118.6055025 -79.08999999999997 119.9219475 -77.77355499999999 Q121.19791875 -76.49758374999999 121.19791875 -74.73624999999998 Q121.19791875 -72.97491624999998 119.93275125000001 -71.73458124999999 L40.895418750000005 7.3027512500000284 Q39.65508375 8.567918750000018 37.893750000000004 8.567918750000018 Q36.13241625 8.567918750000018 34.86724875 7.3027512500000284 Z"/></g><g id="Thin-L" transform="matrix(1 0 0 1 787.282 1556)"><path d="M35.54933625 6.620663750000006 Q34.470251250000004 5.541417500000023 34.470251250000004 3.9537500000000136 Q34.470251250000004 2.3660825000000045 35.54933625 1.3365012500000262 L114.0905025 -77.08066374999999 Q115.13250000000001 -78.12249999999997 116.5898775 -78.20312499999999 Q118.04741625 -78.28374999999998 119.22905625 -77.10210999999998 Q120.32974875000001 -76.00141749999997 120.32974875000001 -74.41375 Q120.32974875000001 -72.82608249999998 119.25066375 -71.79650124999998 L40.83349875 6.620663750000006 Q39.803917500000004 7.699748750000026 38.21625 7.699748750000026 Q36.6285825 7.699748750000026 35.54933625 6.620663750000006 Z"/></g><g id="Ultralight-L" transform="matrix(1 0 0 1 491.205 1556)"><path d="M35.95875 6.211250000000007 Q34.99125 5.243750000000006 34.99125 3.7602500000000134 Q34.99125 2.276750000000021 35.95875 1.3737500000000296 L114.165 -76.67124999999999 Q115.13250000000001 -77.63874999999999 116.4225 -77.71937499999999 Q117.7125 -77.79999999999998 118.81319250000001 -76.69930749999997 Q119.80875 -75.70374999999999 119.80875 -74.22025 Q119.80875 -72.73674999999999 118.84125 -71.83374999999998 L40.79625 6.211250000000007 Q39.89325 7.178750000000008 38.40975 7.178750000000008 Q36.92625 7.178750000000008 35.95875 6.211250000000007 Z"/></g><g id="Bold-M" transform="matrix(1 0 0 1 2281.8 1126)"><path d="M24.5 0.27000000000001023 Q22.25 -1.9799999999999898 22.25 -5.22999999999999 Q22.25 -8.47999999999999 24.5 -10.72999999999999 L84.375 -70.72999999999999 Q86.625 -73.10499999999999 89.875 -73.10499999999999 Q93.125 -73.10499999999999 95.5 -70.72999999999999 Q97.75 -68.47999999999999 97.75 -65.22999999999999 Q97.75 -61.97999999999999 95.5 -59.72999999999999 L35.5 0.27000000000001023 Q33.25 2.5200000000000102 30.0 2.5200000000000102 Q26.75 2.5200000000000102 24.5 0.27000000000001023 Z"/></g><g id="Semibold-M" transform="matrix(1 0 0 1 1985.97 1126)"><path d="M25.3695 -0.5994999999999919 Q23.499875 -2.469124999999991 23.499875 -5.22999999999999 Q23.499875 -7.990874999999988 25.3695 -9.860499999999988 L85.298875 -69.86049999999999 Q87.1685 -71.85512499999999 89.902125 -71.85512499999999 Q92.635875 -71.85512499999999 94.6305 -69.86049999999999 Q96.500125 -67.99087499999999 96.500125 -65.22999999999999 Q96.500125 -62.46912499999999 94.6305 -60.59949999999999 L34.6305 -0.5994999999999919 Q32.760875 1.2701250000000073 30.0 1.2701250000000073 Q27.239125 1.2701250000000073 25.3695 -0.5994999999999919 Z"/></g><g id="Medium-M" transform="matrix(1 0 0 1 1689.91 1126)"><path d="M26.02175 -1.251749999999987 Q24.4375 -2.8359999999999843 24.4375 -5.22999999999999 Q24.4375 -7.623999999999995 26.02175 -9.208249999999992 L85.991875 -69.20824999999999 Q87.576125 -70.91749999999999 89.9225 -70.91749999999999 Q92.269 -70.91749999999999 93.97825 -69.20824999999999 Q95.5625 -67.624 95.5625 -65.22999999999999 Q95.5625 -62.83599999999999 93.97825 -61.25174999999999 L33.97825 -1.251749999999987 Q32.394 0.33250000000001023 30.0 0.33250000000001023 Q27.606 0.33250000000001023 26.02175 -1.251749999999987 Z"/></g><g id="Regular-M" transform="matrix(1 0 0 1 1394.06 1126)"><path d="M26.5 -1.7299999999999898 Q25.125 -3.1049999999999898 25.125 -5.22999999999999 Q25.125 -7.35499999999999 26.5 -8.72999999999999 L86.5 -68.72999999999999 Q87.875 -70.22999999999999 89.9375 -70.22999999999999 Q92.0 -70.22999999999999 93.5 -68.72999999999999 Q94.875 -67.35499999999999 94.875 -65.22999999999999 Q94.875 -63.10499999999999 93.5 -61.72999999999999 L33.5 -1.7299999999999898 Q32.125 -0.35499999999998977 30.0 -0.35499999999998977 Q27.875 -0.35499999999998977 26.5 -1.7299999999999898 Z"/></g><g id="Light-M" transform="matrix(1 0 0 1 1098.18 1126)"><path d="M27.028875 -2.258874999999989 Q25.84625 -3.4416249999999877 25.84625 -5.2396249999999895 Q25.84625 -7.037624999999991 27.028875 -8.20112499999999 L87.077 -68.20112499999999 Q88.259625 -69.46074999999999 89.9615 -69.48474999999999 Q91.663375 -69.50874999999999 92.96275 -68.20949999999999 Q94.15375 -67.01837499999999 94.15375 -65.22037499999999 Q94.15375 -63.42237499999999 92.971125 -62.25887499999999 L32.971125 -2.258874999999989 Q31.807625 -1.0762499999999875 30.009625 -1.0762499999999875 Q28.211625 -1.0762499999999875 27.028875 -2.258874999999989 Z"/></g><g id="Thin-M" transform="matrix(1 0 0 1 802.565 1126)"><path d="M27.557625 -2.7876249999999914 Q26.56725 -3.7781249999999886 26.56725 -5.249249999999989 Q26.56725 -6.72037499999999 27.557625 -7.672374999999988 L87.653875 -67.67237499999999 Q88.64425 -68.69149999999999 89.985625 -68.73962499999999 Q91.326875 -68.78774999999999 92.425625 -67.689 Q93.43275 -66.68187499999999 93.43275 -65.21074999999999 Q93.43275 -63.73962499999999 92.442375 -62.78762499999999 L32.442375 -2.7876249999999914 Q31.490375 -1.7972499999999911 30.01925 -1.7972499999999911 Q28.548125 -1.7972499999999911 27.557625 -2.7876249999999914 Z"/></g><g id="Ultralight-M" transform="matrix(1 0 0 1 506.415 1126)"><path d="M27.875 -3.1049999999999898 Q27.0 -3.9799999999999898 27.0 -5.2549999999999955 Q27.0 -6.529999999999987 27.875 -7.35499999999999 L88.0 -67.35499999999999 Q88.875 -68.22999999999999 90.0 -68.29249999999999 Q91.125 -68.35499999999999 92.10325 -67.37674999999999 Q93.0 -66.47999999999999 93.0 -65.20499999999998 Q93.0 -63.92999999999999 92.125 -63.10499999999999 L32.125 -3.1049999999999898 Q31.3 -2.2299999999999898 30.025 -2.2299999999999898 Q28.75 -2.2299999999999898 27.875 -3.1049999999999898 Z"/></g><g id="Bold-S" transform="matrix(1 0 0 1 2294.23 696)"><path d="M23.176875000000003 -11.066874999999996 Q21.401625 -12.842124999999996 21.401625 -15.110499999999988 Q21.401625 -17.378874999999994 23.176875000000003 -19.154124999999993 L63.31725 -59.393125 Q65.0925 -61.168375 67.4101875 -61.168375 Q69.727875 -61.168375 71.503125 -59.393125 Q73.278375 -57.617875 73.278375 -55.34949999999999 Q73.278375 -53.08112499999999 71.503125 -51.30587499999999 L31.264125 -11.066874999999996 Q29.488875 -9.291624999999996 27.2205 -9.291624999999996 Q24.952125000000002 -9.291624999999996 23.176875000000003 -11.066874999999996 Z"/></g><g id="Semibold-S" transform="matrix(1 0 0 1 1998.1 696)"><path d="M23.8629105 -11.752910499999999 Q22.387776375 -13.228044624999995 22.387776375 -15.110499999999988 Q22.387776375 -16.992955374999994 23.8629105 -18.46808949999999 L64.046187375 -58.707089499999995 Q65.5213215 -60.18222362499999 67.431589125 -60.18222362499999 Q69.341955375 -60.18222362499999 70.8170895 -58.707089499999995 Q72.292223625 -57.23195537499999 72.292223625 -55.34949999999999 Q72.292223625 -53.46704462499999 70.8170895 -51.991910499999996 L30.5780895 -11.752910499999999 Q29.102955375 -10.277776375000002 27.2205 -10.277776375000002 Q25.338044625000002 -10.277776375000002 23.8629105 -11.752910499999999 Z"/></g><g id="Medium-S" transform="matrix(1 0 0 1 1701.85 696)"><path d="M24.377535750000003 -12.267535749999993 Q23.1275625 -13.51750899999999 23.1275625 -15.110499999999988 Q23.1275625 -16.703491 24.377535750000003 -17.953464249999996 L64.592964375 -58.19246425 Q65.842937625 -59.4424375 67.447665 -59.4424375 Q69.052491 -59.4424375 70.30246425 -58.19246425 Q71.5524375 -56.942491 71.5524375 -55.34949999999999 Q71.5524375 -53.756508999999994 70.30246425 -52.50653574999999 L30.063464250000003 -12.267535749999993 Q28.813491 -11.017562499999997 27.2205 -11.017562499999997 Q25.627509000000003 -11.017562499999997 24.377535750000003 -12.267535749999993 Z"/></g><g id="Regular-S" transform="matrix(1 0 0 1 1405.73 696)"><path d="M24.754875000000002 -12.644874999999999 Q23.67 -13.729749999999996 23.67 -15.110499999999988 Q23.67 -16.491249999999994 24.754875000000002 -17.57612499999999 L64.993875 -57.815124999999995 Q66.07875 -58.9 67.4595 -58.9 Q68.84025 -58.9 69.92512500000001 -57.815124999999995 Q71.01 -56.73025 71.01 -55.34949999999999 Q71.01 -53.96874999999999 69.92512500000001 -52.883874999999996 L29.686125 -12.644874999999999 Q28.60125 -11.559999999999988 27.2205 -11.559999999999988 Q25.839750000000002 -11.559999999999988 24.754875000000002 -12.644874999999999 Z"/></g><g id="Light-S" transform="matrix(1 0 0 1 1109.75 696)"><path d="M25.172157375 -13.062157374999998 Q24.23906625 -13.995347124999995 24.23906625 -15.118094124999999 Q24.23906625 -16.24084112499999 25.172157375 -17.15884262499999 L65.449128 -57.397842624999996 Q66.382219125 -58.29306174999999 67.478436 -58.311997749999996 Q68.574652875 -58.33093375 69.50123475000001 -57.404450499999996 Q70.44093375 -56.464652875 70.44093375 -55.341905874999995 Q70.44093375 -54.21915887499999 69.50784262500001 -53.301157374999995 L29.268842625 -13.062157374999998 Q28.350841125000002 -12.129066249999994 27.228094125000002 -12.129066249999994 Q26.105347124999998 -12.129066249999994 25.172157375 -13.062157374999998 Z"/></g><g id="Thin-S" transform="matrix(1 0 0 1 814.015 696)"><path d="M25.589341125 -13.47934112499999 Q24.807935250000003 -14.260845624999988 24.807935250000003 -15.125688249999996 Q24.807935250000003 -15.99053087499999 25.589341125 -16.741658875 L65.90428237500001 -56.980658874999996 Q66.68568825 -57.686123499999994 67.497470625 -57.72409412499999 Q68.309154375 -57.76206474999999 69.077443125 -56.993776 Q69.87206475 -56.199154375 69.87206475 -55.33431175 Q69.87206475 -54.469469124999996 69.090658875 -53.718341124999995 L28.851658875 -13.47934112499999 Q28.100530875 -12.69793525 27.235688250000003 -12.69793525 Q26.370845625 -12.69793525 25.589341125 -13.47934112499999 Z"/></g><g id="Ultralight-S" transform="matrix(1 0 0 1 517.792 696)"><path d="M25.839750000000002 -13.729749999999996 Q25.149375000000003 -14.420124999999999 25.149375000000003 -15.130224999999996 Q25.149375000000003 -15.840324999999993 25.839750000000002 -16.491249999999994 L66.177375 -56.73025 Q66.86775 -57.321999999999996 67.5088125 -57.371312499999995 Q68.14987500000001 -57.420624999999994 68.82308925000001 -56.74741074999999 Q69.530625 -56.039874999999995 69.530625 -55.329775 Q69.530625 -54.619674999999994 68.84025 -53.96874999999999 L28.60125 -13.729749999999996 Q27.950325 -13.039374999999993 27.240225 -13.039374999999993 Q26.530125 -13.039374999999993 25.839750000000002 -13.729749999999996 Z"/></g></g></svg>