<svg xmlns="http://www.w3.org/2000/svg" version="1.1" width="3300" height="2000"><g id="Notes"><style>
    text {
      font-family: monospace;
      text-anchor: middle;
    }
    text.emphasis {
      font-weight:bold;
    }
    text.lanchor {
      text-anchor: start;
    }
  </style><rect height="2200" id="artboard" fill="white" width="3300" x="0" y="0"/><line id="" style="fill:none;stroke:black;stroke-width:0.5;" x1="263" x2="3036" y1="292" y2="292"/><text class="lanchor emphasis" transform="matrix(1 0 0 1 263 322)">Weight/Scale Variations</text><text transform="matrix(1 0 0 1 559.711 322)">Ultralight</text><text transform="matrix(1 0 0 1 856.422 322)">Thin</text><text transform="matrix(1 0 0 1 1153.13 322)">Light</text><text transform="matrix(1 0 0 1 1449.84 322)">Regular</text><text transform="matrix(1 0 0 1 1746.56 322)">Medium</text><text transform="matrix(1 0 0 1 2043.27 322)">Semibold</text><text transform="matrix(1 0 0 1 2339.98 322)">Bold</text><text transform="matrix(1 0 0 1 2636.69 322)">Heavy</text><text transform="matrix(1 0 0 1 2933.4 322)">Black</text><text id="template-version" style="text-anchor: end;" transform="matrix(1 0 0 1 3036 1933)">Template v.1.0</text><text class="lanchor" transform="matrix(1 0 0 1 263 726)">Small</text><text class="lanchor" transform="matrix(1 0 0 1 263 1156)">Medium</text><text class="lanchor" transform="matrix(1 0 0 1 263 1586)">Large</text></g><g id="Guides"><g id="H-reference" style="fill:#27AAE1;stroke:none;" transform="matrix(1 0 0 1 339 696)"><path d="M 54.9316 0 L 57.666 0 L 30.5664 -70.459 L 28.0762 -70.459 L 0.976562 0 L 3.66211 0 L 12.9395 -24.4629 L 45.7031 -24.4629 Z M 29.1992 -67.0898 L 29.4434 -67.0898 L 44.8242 -26.709 L 13.8184 -26.709 Z"/></g><line id="Baseline-S" style="fill:none;stroke:#27AAE1;opacity:1;stroke-width:0.577;" x1="263" x2="3036" y1="696" y2="696"/><line id="Capline-S" style="fill:none;stroke:#27AAE1;opacity:1;stroke-width:0.577;" x1="263" x2="3036" y1="625.541" y2="625.541"/><g id="H-reference" style="fill:#27AAE1;stroke:none;" transform="matrix(1 0 0 1 339 1126)"><path d="M 54.9316 0 L 57.666 0 L 30.5664 -70.459 L 28.0762 -70.459 L 0.976562 0 L 3.66211 0 L 12.9395 -24.4629 L 45.7031 -24.4629 Z M 29.1992 -67.0898 L 29.4434 -67.0898 L 44.8242 -26.709 L 13.8184 -26.709 Z"/></g><line id="Baseline-M" style="fill:none;stroke:#27AAE1;opacity:1;stroke-width:0.577;" x1="263" x2="3036" y1="1126" y2="1126"/><line id="Capline-M" style="fill:none;stroke:#27AAE1;opacity:1;stroke-width:0.577;" x1="263" x2="3036" y1="1055.54" y2="1055.54"/><g id="H-reference" style="fill:#27AAE1;stroke:none;" transform="matrix(1 0 0 1 339 1556)"><path d="M 54.9316 0 L 57.666 0 L 30.5664 -70.459 L 28.0762 -70.459 L 0.976562 0 L 3.66211 0 L 12.9395 -24.4629 L 45.7031 -24.4629 Z M 29.1992 -67.0898 L 29.4434 -67.0898 L 44.8242 -26.709 L 13.8184 -26.709 Z"/></g><line id="Baseline-L" style="fill:none;stroke:#27AAE1;opacity:1;stroke-width:0.577;" x1="263" x2="3036" y1="1556" y2="1556"/><line id="Capline-L" style="fill:none;stroke:#27AAE1;opacity:1;stroke-width:0.577;" x1="263" x2="3036" y1="1485.54" y2="1485.54"/><rect height="119.336" id="left-margin" style="fill:darkred;stroke:none;opacity:0.4;" width="12.4512" x="1394.06" y="1030.79"/><rect height="119.336" id="right-margin" style="fill:darkgreen;stroke:none;opacity:0.4;" width="12.4512" x="1502.5112" y="1030.79"/><rect x="1406.5112" y="1045" width="96" height="96" fill="none" stroke="blue" stroke-dasharray="5"/><rect x="1394.06" y="1030.79" width="120.9024" height="119.336" fill="none" stroke="blue"/></g><g id="Symbols"><g id="Bold-L" transform="matrix(1 0 0 1 2266 1556)"><path d="M20.3175 10.565000000000026  9.030000000000001 -0.7224999999999824  61.275 -52.96749999999999  86.91375000000001 -27.328749999999985  134.96625 -81.34749999999998  145.77 -70.86624999999998  87.39750000000001 -4.592499999999987  61.275 -30.392499999999984  20.3175 10.565000000000026 Z"/></g><g id="Semibold-L" transform="matrix(1 0 0 1 1970.27 1556)"><path d="M20.3175 8.882517500000034  10.7124825 -0.7224999999999824  61.275 -51.28501749999998  86.98389375 -25.50597999999998  135.03639375 -79.52472999999999  144.08751750000002 -70.72596249999998  87.25721250000001 -6.345126249999993  61.275 -32.074982499999976  20.3175 8.882517500000034 Z"/></g><g id="Medium-L" transform="matrix(1 0 0 1 1674.31 1556)"><path d="M20.3175 7.6204137500000115  11.97458625 -0.7224999999999824  61.275 -50.02291374999997  87.03646125 -24.138902499999972  135.08896125 -78.15765249999998  142.82541375 -70.62082749999999  87.15207749999999 -7.659797499999996  61.275 -33.33708624999997  20.3175 7.6204137500000115 Z"/></g><g id="Regular-L" transform="matrix(1 0 0 1 1378.56 1556)"><path d="M20.3175 6.695000000000022  12.9 -0.7224999999999824  61.275 -49.09749999999998  87.075 -23.136249999999976  135.1275 -77.15499999999999  141.9 -70.54374999999999  87.075 -8.623749999999987  61.275 -34.26249999999999  20.3175 6.695000000000022 Z"/></g><g id="Light-L" transform="matrix(1 0 0 1 1082.77 1556)"><path d="M20.9376675 4.4621712500000115  15.3809925 -1.0946649999999778  61.52316375 -47.23683624999998  87.32316375 -21.33750624999999  134.38317 -74.67400749999999  139.54317 -69.79941999999998  87.447165 -10.360412499999981  61.52316375 -36.123163749999975  20.9376675 4.4621712500000115 Z"/></g><g id="Thin-L" transform="matrix(1 0 0 1 787.282 1556)"><path d="M21.557835 2.2296650000000113  17.86150125 -1.4666687499999824  61.77116625 -45.376333749999986  87.57116625 -19.539084999999986  133.63900125 -72.19349874999997  137.18650125 -69.05525124999998  87.81916875 -12.09675249999998  61.77116625 -37.983666249999985  21.557835 2.2296650000000113 Z"/></g><g id="Ultralight-L" transform="matrix(1 0 0 1 491.205 1556)"><path d="M21.93 0.8900000000000148  19.35 -1.6899999999999835  61.92 -44.25999999999998  87.72 -18.45999999999998  133.1925 -70.70499999999998  135.7725 -68.60874999999999  88.0425 -13.138749999999987  61.92 -39.09999999999998  21.93 0.8900000000000148 Z"/></g><g id="Bold-M" transform="matrix(1 0 0 1 2281.8 1126)"><path d="M17.5 1.2700000000000102  6.0 -10.22999999999999  47.5 -51.72999999999999  67.25 -31.97999999999999  102.75 -71.97999999999999  114.0 -60.97999999999999  67.75 -8.47999999999999  47.5 -28.72999999999999  17.5 1.2700000000000102 Z"/></g><g id="Semibold-M" transform="matrix(1 0 0 1 1985.97 1126)"><path d="M17.5 -0.4689999999999941  7.739 -10.22999999999999  47.5 -49.99099999999999  67.35875 -30.132249999999985  102.85875 -70.13225  112.261 -60.87124999999999  67.64125 -10.327749999999995  47.5 -30.468999999999994  17.5 -0.4689999999999941 Z"/></g><g id="Medium-M" transform="matrix(1 0 0 1 1689.91 1126)"><path d="M17.5 -1.7734999999999843  9.0435 -10.22999999999999  47.5 -48.68649999999999  67.44025 -28.746374999999986  102.94025 -68.74637499999999  110.9565 -60.78974999999999  67.55975 -11.713624999999993  47.5 -31.773499999999984  17.5 -1.7734999999999843 Z"/></g><g id="Regular-M" transform="matrix(1 0 0 1 1394.06 1126)"><path d="M17.5 -2.7299999999999898  10.0 -10.22999999999999  47.5 -47.72999999999999  67.5 -27.72999999999999  103.0 -67.72999999999999  110.0 -60.72999999999999  67.5 -12.72999999999999  47.5 -32.72999999999999  17.5 -2.7299999999999898 Z"/></g><g id="Light-M" transform="matrix(1 0 0 1 1098.18 1126)"><path d="M17.5 -4.460874999999987  11.92325 -10.037624999999991  47.692375 -45.80674999999999  67.692375 -25.806749999999994  102.903875 -65.80675  108.173 -60.63387499999999  67.7885 -14.556999999999988  47.692375 -34.653249999999986  17.5 -4.460874999999987 Z"/></g><g id="Thin-M" transform="matrix(1 0 0 1 802.565 1126)"><path d="M17.5 -6.191499999999991  13.846125 -9.84537499999999  47.884625 -43.88387499999999  67.884625 -23.88387499999999  102.80775 -63.88387499999999  106.346125 -60.53774999999999  68.076875 -16.38387499999999  47.884625 -36.57612499999999  17.5 -6.191499999999991 Z"/></g><g id="Ultralight-M" transform="matrix(1 0 0 1 506.415 1126)"><path d="M17.5 -7.22999999999999  15.0 -9.72999999999999  48.0 -42.72999999999999  68.0 -22.72999999999999  102.75 -62.72999999999999  105.25 -60.47999999999999  68.25 -17.47999999999999  48.0 -37.72999999999999  17.5 -7.22999999999999 Z"/></g><g id="Bold-S" transform="matrix(1 0 0 1 2294.23 696)"><path d="M14.497875 -8.108124999999987  6.312 -16.293999999999997  37.872 -47.85399999999999  53.158875 -32.665749999999996  79.68900000000001 -62.45049999999999  88.36800000000001 -54.5605  53.849250000000005 -15.504999999999995  37.872 -31.482249999999993  14.497875 -8.108124999999987 Z"/></g><g id="Semibold-S" transform="matrix(1 0 0 1 1998.1 696)"><path d="M14.497875 -9.480195999999992  7.684071000000001 -16.293999999999997  37.872 -46.481928999999994  53.244678750000006 -31.207875249999994  79.77480375 -60.992625249999996  86.995929 -54.474696249999994  53.76344625 -16.962874749999997  37.872 -32.854321  14.497875 -9.480195999999992 Z"/></g><g id="Medium-S" transform="matrix(1 0 0 1 1701.85 696)"><path d="M14.497875 -10.509446499999996  8.713321500000001 -16.293999999999997  37.872 -45.45267849999999  53.30898225000001 -30.11441987499999  79.83910725000001 -59.89916987499999  85.96667850000001 -54.41039274999999  53.69914275 -18.056330125000002  37.872 -33.88357149999999  14.497875 -10.509446499999996 Z"/></g><g id="Regular-S" transform="matrix(1 0 0 1 1405.73 696)"><path d="M14.497875 -11.264124999999993  9.468 -16.293999999999997  37.872 -44.69799999999999  53.356125000000006 -29.312499999999993  79.88625 -59.097249999999995  85.212 -54.363249999999994  53.652 -18.858249999999998  37.872 -34.63824999999999  14.497875 -11.264124999999993 Z"/></g><g id="Light-S" transform="matrix(1 0 0 1 1109.75 696)"><path d="M14.497875 -12.629785374999997  10.98544425 -16.14221612499999  38.023783875 -43.18055574999999  53.507908875 -27.795055750000003  79.810407375 -57.57980574999999  83.770497 -54.287407374999994  53.8796265 -20.299752999999995  38.023783875 -36.15569424999999  14.497875 -12.629785374999997 Z"/></g><g id="Thin-S" transform="matrix(1 0 0 1 814.015 696)"><path d="M14.497875 -13.995248499999988  12.502592625000002 -15.99053087499999  38.175469125 -41.66340737499999  53.659594125000005 -26.277907374999998  79.73456475 -56.06265737499999  82.329092625 -54.211564749999994  54.107154375 -21.741157374999986  38.175469125 -37.672842624999994  14.497875 -13.995248499999988 Z"/></g><g id="Ultralight-S" transform="matrix(1 0 0 1 517.792 696)"><path d="M14.497875 -14.814624999999992  13.413 -15.899499999999989  38.2665 -40.75299999999999  53.750625 -25.367499999999993  79.68900000000001 -55.152249999999995  81.46425 -54.166  54.243750000000006 -22.605999999999995  38.2665 -38.58324999999999  14.497875 -14.814624999999992 Z"/></g></g></svg>